<svg width="84" height="85" viewBox="0 0 84 85" fill="none" xmlns="http://www.w3.org/2000/svg">
<path d="M0 85L5.90449 63.1727C2.26099 56.7835 0.346499 49.5408 0.349999 42.114C0.360499 18.8948 19.033 0 41.9754 0C53.1089 0.00354167 63.5599 4.39167 71.4208 12.3533C79.2783 20.315 83.6043 30.8975 83.6008 42.1529C83.5903 65.3756 64.9179 84.2704 41.9754 84.2704C35.0104 84.2669 28.1469 82.4996 22.0675 79.1421L0 85ZM23.0894 71.5169C28.9554 75.0408 34.5554 77.1517 41.9614 77.1552C61.0294 77.1552 76.5623 61.4515 76.5728 42.1458C76.5798 22.8013 61.1204 7.11875 41.9894 7.11167C22.9074 7.11167 7.38498 22.8154 7.37798 42.1175C7.37448 49.9977 9.65648 55.8981 13.489 62.0712L9.99248 74.9912L23.0894 71.5169ZM62.9439 52.1652C62.6849 51.726 61.9919 51.464 60.9489 50.9363C59.9094 50.4085 54.7959 47.8621 53.8404 47.5115C52.8884 47.1608 52.1954 46.9838 51.4989 48.0392C50.8059 49.091 48.8109 51.464 48.2054 52.1652C47.5999 52.8665 46.9909 52.955 45.9514 52.4273C44.9119 51.8996 41.5589 50.791 37.5864 47.2033C34.4959 44.4125 32.4064 40.9665 31.8009 39.911C31.1954 38.8592 31.7379 38.289 32.2559 37.7648C32.7249 37.2938 33.2954 36.5358 33.8169 35.9196C34.3454 35.3104 34.5169 34.8713 34.8669 34.1665C35.2134 33.4652 35.0419 32.849 34.7794 32.3213C34.5169 31.7971 32.4379 26.6156 31.5734 24.5083C30.7264 22.4577 29.8689 22.734 29.2319 22.7021L27.2369 22.6667C26.5439 22.6667 25.4169 22.9287 24.4649 23.9842C23.5129 25.0396 20.825 27.5825 20.825 32.764C20.825 37.9454 24.5524 42.9498 25.0704 43.651C25.5919 44.3523 32.4029 54.9844 42.8364 59.5425C45.3179 60.6263 47.2569 61.2744 48.7654 61.7596C51.2574 62.56 53.5254 62.4467 55.3174 62.1775C57.3159 61.8765 61.4704 59.631 62.3384 57.1731C63.2064 54.7117 63.2064 52.6044 62.9439 52.1652Z" fill="#25D366"/>
</svg>
